<svg width="4348" height="2474" viewBox="0 0 4348 2474" fill="none" xmlns="http://www.w3.org/2000/svg">
<g clip-path="url(#clip0_0_1)">
<path d="M1456.04 0.590332H1178.7V1618.41H1456.04V0.590332Z" fill="white"/>
<path fill-rule="evenodd" clip-rule="evenodd" d="M0 347.266C0 155.901 155.311 0.590332 346.676 0.590332H924.468V254.819H439.122C349.68 254.819 277.34 327.159 277.34 416.601V578.383H924.468V809.5H277.34V1618.41H0V347.266Z" fill="white"/>
<mask id="mask0_0_1" style="mask-type:luminance" maskUnits="userSpaceOnUse" x="3091" y="393" width="1254" height="1226">
<path d="M3926.68 393.027L4345 393.489L3512.98 1618.41L3091.88 1618.18L3926.68 393.027Z" fill="white"/>
</mask>
<g mask="url(#mask0_0_1)">
<path d="M3206.52 1696.3L4041.31 471.145L3812.04 314.91L2977.25 1540.06L3206.52 1696.3ZM3512.98 1479.74H3091.88V1756.85H3512.98V1479.74ZM4230.37 315.603L3398.35 1540.52L3627.84 1696.3L4459.87 471.376L4230.37 315.603ZM3926.68 531.697L4345 532.16V254.819L3926.91 254.357V531.697H3926.68ZM3091.88 1618.18L2977.25 1540.06L2829.57 1756.62H3091.65V1618.18H3091.88ZM3512.98 1618.41V1757.08H3586.47L3627.84 1696.3L3513.21 1618.41H3512.98ZM4345 393.489L4459.63 471.376L4606.63 255.05H4345V393.489ZM3926.68 393.027V254.357H3853.41L3812.04 314.91L3926.68 393.027Z" fill="white"/>
</g>
<path d="M4079.21 1618.41C4226 1618.41 4345 1499.41 4345 1352.62C4345 1205.84 4226 1086.84 4079.21 1086.84C3932.43 1086.84 3813.43 1205.84 3813.43 1352.62C3813.43 1499.41 3932.43 1618.41 4079.21 1618.41Z" fill="white"/>
<mask id="mask1_0_1" style="mask-type:luminance" maskUnits="userSpaceOnUse" x="3096" y="393" width="533" height="533">
<path d="M3362.75 925.058C3509.54 925.058 3628.54 806.063 3628.54 659.274C3628.54 512.485 3509.54 393.489 3362.75 393.489C3215.96 393.489 3096.97 512.485 3096.97 659.274C3096.97 806.063 3215.96 925.058 3362.75 925.058Z" fill="white"/>
</mask>
<g mask="url(#mask1_0_1)">
<path d="M3362.75 532.16C3433.01 532.16 3489.87 589.014 3489.87 659.274H3767.21C3767.21 436.015 3586.01 254.819 3362.75 254.819V532.16ZM3235.64 659.274C3235.64 589.014 3292.49 532.16 3362.75 532.16V254.819C3139.49 254.819 2958.3 436.015 2958.3 659.274H3235.64ZM3362.75 786.388C3292.49 786.388 3235.64 729.533 3235.64 659.274H2958.3C2958.3 882.533 3139.49 1063.73 3362.75 1063.73V786.388ZM3489.87 659.274C3489.87 729.533 3433.01 786.388 3362.75 786.388V1063.73C3586.01 1063.73 3767.21 882.533 3767.21 659.274H3489.87Z" fill="white"/>
</g>
<path fill-rule="evenodd" clip-rule="evenodd" d="M2593.83 1248.62C2523.8 1333.21 2418.18 1387.29 2299.62 1387.29C2089.07 1387.29 1918.27 1216.5 1918.27 1005.95C1918.27 795.402 2089.07 624.606 2299.62 624.606C2510.16 624.606 2680.96 795.402 2680.96 1005.95C2680.96 1042 2675.87 1076.9 2666.63 1109.95H2903.29C2909.07 1076.21 2912.08 1041.31 2912.08 1005.95C2912.08 667.594 2637.97 393.489 2299.62 393.489C1961.26 393.489 1687.16 667.594 1687.16 1005.95C1687.16 1344.3 1961.26 1618.41 2299.62 1618.41C2551.77 1618.41 2768.09 1466.1 2862.16 1248.62H2593.83Z" fill="white"/>
<path d="M2888.96 878.835H1848.94V1109.95H2888.96V878.835Z" fill="white"/>
</g>
<path d="M9.87256 2371.41V2065.41H122.498C125.473 2065.41 128.518 2065.55 131.635 2065.83C134.752 2065.98 138.223 2066.4 142.048 2067.11C156.781 2069.38 169.531 2074.76 180.298 2083.26C191.206 2091.62 199.564 2102.24 205.373 2115.13C211.323 2127.88 214.298 2141.91 214.298 2157.21C214.298 2172.51 211.323 2186.61 205.373 2199.5C199.564 2212.25 191.206 2222.87 180.298 2231.37C169.531 2239.73 156.781 2245.04 142.048 2247.31C138.223 2247.88 134.752 2248.3 131.635 2248.58C128.518 2248.87 125.473 2249.01 122.498 2249.01H27.7226V2371.41H9.87256ZM27.7226 2231.16H122.498C124.906 2231.16 127.739 2231.02 130.998 2230.73C134.398 2230.45 137.798 2230.03 141.198 2229.46C152.956 2227.19 162.802 2222.52 170.735 2215.43C178.81 2208.35 184.902 2199.78 189.01 2189.72C193.118 2179.52 195.173 2168.68 195.173 2157.21C195.173 2145.73 193.118 2134.97 189.01 2124.91C184.902 2114.71 178.81 2106.07 170.735 2098.98C162.802 2091.9 152.956 2087.23 141.198 2084.96C137.798 2084.25 134.398 2083.83 130.998 2083.68C127.739 2083.4 124.906 2083.26 122.498 2083.26H27.7226V2231.16ZM323.43 2377.78C305.58 2377.78 290.775 2374.67 279.017 2368.43C267.259 2362.2 258.475 2353.98 252.667 2343.78C246.859 2333.58 243.955 2322.53 243.955 2310.63C243.955 2297.18 246.859 2286.06 252.667 2277.27C258.617 2268.35 266.338 2261.33 275.83 2256.23C285.321 2251.13 295.521 2247.45 306.43 2245.18C319.746 2242.49 333.984 2240.16 349.142 2238.17C364.442 2236.05 378.538 2234.28 391.43 2232.86C404.321 2231.44 413.955 2230.31 420.33 2229.46L413.955 2233.71C414.663 2206.65 409.705 2186.53 399.08 2173.36C388.596 2160.04 370.038 2153.38 343.405 2153.38C324.138 2153.38 308.625 2157.71 296.867 2166.35C285.25 2174.85 277.105 2187.95 272.43 2205.66L252.88 2200.56C257.98 2179.31 268.392 2163.16 284.117 2152.11C299.984 2141.06 320.03 2135.53 344.255 2135.53C365.505 2135.53 383.213 2139.86 397.38 2148.5C411.546 2157.14 421.18 2168.83 426.28 2183.56C428.263 2189.23 429.68 2196.1 430.53 2204.17C431.38 2212.25 431.805 2220.11 431.805 2227.76V2371.41H415.23V2308.51L423.73 2308.93C417.638 2330.75 405.525 2347.68 387.392 2359.72C369.259 2371.76 347.938 2377.78 323.43 2377.78ZM322.58 2359.93C339.155 2359.93 353.746 2356.96 366.355 2351.01C379.105 2345.06 389.375 2336.49 397.167 2325.3C405.1 2313.96 410.13 2300.43 412.255 2284.71C413.388 2276.78 413.955 2268.28 413.955 2259.21C413.955 2250.14 413.955 2243.63 413.955 2239.66L423.305 2246.88C415.796 2247.59 405.384 2248.58 392.067 2249.86C378.892 2250.99 364.938 2252.55 350.205 2254.53C335.471 2256.38 322.155 2258.78 310.255 2261.76C303.313 2263.46 296.159 2266.15 288.792 2269.83C281.425 2273.52 275.192 2278.69 270.092 2285.35C265.134 2292.01 262.655 2300.58 262.655 2311.06C262.655 2318.43 264.496 2325.86 268.18 2333.37C271.863 2340.88 278.025 2347.18 286.667 2352.28C295.45 2357.38 307.421 2359.93 322.58 2359.93ZM521.36 2473.41L565.985 2353.56L566.41 2389.26L465.685 2141.91H485.235L575.335 2364.61H561.735L642.485 2141.91H661.61L541.335 2473.41H521.36ZM812.508 2371.41V2065.41H982.508V2083.26H830.358V2209.48H957.008V2227.33H830.358V2371.41H812.508ZM1119.61 2377.78C1096.94 2377.78 1077.82 2372.61 1062.23 2362.27C1046.65 2351.93 1034.82 2337.62 1026.74 2319.35C1018.67 2301.07 1014.63 2280.03 1014.63 2256.23C1014.63 2232.15 1018.74 2211.04 1026.96 2192.91C1035.17 2174.78 1047.07 2160.68 1062.66 2150.62C1078.38 2140.56 1097.37 2135.53 1119.61 2135.53C1142.42 2135.53 1161.61 2140.71 1177.19 2151.05C1192.78 2161.25 1204.54 2175.41 1212.47 2193.55C1220.54 2211.68 1224.58 2232.58 1224.58 2256.23C1224.58 2280.46 1220.54 2301.71 1212.47 2319.98C1204.39 2338.12 1192.49 2352.28 1176.77 2362.48C1161.19 2372.68 1142.13 2377.78 1119.61 2377.78ZM1119.61 2359.93C1148.51 2359.93 1170.04 2350.37 1184.21 2331.25C1198.37 2311.98 1205.46 2286.98 1205.46 2256.23C1205.46 2224.93 1198.3 2199.99 1183.99 2181.43C1169.83 2162.73 1148.37 2153.38 1119.61 2153.38C1100.2 2153.38 1084.12 2157.78 1071.37 2166.56C1058.76 2175.34 1049.34 2187.46 1043.11 2202.9C1036.87 2218.34 1033.76 2236.12 1033.76 2256.23C1033.76 2287.4 1040.98 2312.48 1055.43 2331.46C1070.02 2350.44 1091.42 2359.93 1119.61 2359.93ZM1284.18 2371.41V2141.91H1300.75V2196.73L1295.23 2189.51C1297.63 2183.28 1300.68 2177.47 1304.36 2172.08C1308.05 2166.7 1311.66 2162.31 1315.2 2158.91C1321.43 2152.82 1328.8 2148.21 1337.3 2145.1C1345.94 2141.84 1354.58 2140 1363.23 2139.57C1371.87 2139.01 1379.52 2139.78 1386.18 2141.91V2158.91C1376.68 2156.78 1366.63 2156.43 1356 2157.85C1345.38 2159.12 1335.46 2164.01 1326.25 2172.51C1318.18 2180.02 1312.44 2188.66 1309.04 2198.43C1305.78 2208.21 1303.8 2218.34 1303.09 2228.82C1302.38 2239.16 1302.03 2249.01 1302.03 2258.36V2371.41H1284.18ZM1603.42 2371.41L1515.87 2065.41H1534.14L1612.77 2339.11L1690.97 2065.41H1709.67L1788.29 2339.11L1866.49 2065.41H1885.19L1797.64 2371.41H1778.94L1700.32 2098.13L1622.12 2371.41H1603.42ZM2106.69 2371.41V2249.86C2106.69 2233.43 2104.99 2219.26 2101.59 2207.36C2098.33 2195.32 2093.45 2185.4 2086.93 2177.61C2080.41 2169.68 2072.48 2163.8 2063.13 2159.97C2053.92 2156.15 2043.37 2154.23 2031.47 2154.23C2017.44 2154.23 2005.47 2156.71 1995.56 2161.67C1985.78 2166.49 1977.85 2173.15 1971.76 2181.65C1965.66 2190.15 1961.2 2199.92 1958.37 2210.97C1955.53 2222.02 1954.12 2233.71 1954.12 2246.03L1937.54 2246.46C1937.54 2220.25 1941.86 2199.14 1950.51 2183.13C1959.15 2166.98 1970.55 2155.23 1984.72 2147.86C1999.03 2140.49 2014.61 2136.81 2031.47 2136.81C2043.08 2136.81 2053.71 2138.44 2063.34 2141.7C2073.12 2144.96 2081.76 2149.7 2089.27 2155.93C2096.92 2162.03 2103.36 2169.53 2108.61 2178.46C2113.85 2187.38 2117.81 2197.58 2120.51 2209.06C2123.2 2220.39 2124.54 2232.86 2124.54 2246.46V2371.41H2106.69ZM1936.27 2371.41V2065.41H1952.84V2246.03H1954.12V2371.41H1936.27ZM2259.37 2377.78C2241.52 2377.78 2226.72 2374.67 2214.96 2368.43C2203.2 2362.2 2194.42 2353.98 2188.61 2343.78C2182.8 2333.58 2179.9 2322.53 2179.9 2310.63C2179.9 2297.18 2182.8 2286.06 2188.61 2277.27C2194.56 2268.35 2202.28 2261.33 2211.77 2256.23C2221.26 2251.13 2231.46 2247.45 2242.37 2245.18C2255.69 2242.49 2269.93 2240.16 2285.08 2238.17C2300.38 2236.05 2314.48 2234.28 2327.37 2232.86C2340.26 2231.44 2349.9 2230.31 2356.27 2229.46L2349.9 2233.71C2350.6 2206.65 2345.65 2186.53 2335.02 2173.36C2324.54 2160.04 2305.98 2153.38 2279.35 2153.38C2260.08 2153.38 2244.57 2157.71 2232.81 2166.35C2221.19 2174.85 2213.05 2187.95 2208.37 2205.66L2188.82 2200.56C2193.92 2179.31 2204.33 2163.16 2220.06 2152.11C2235.93 2141.06 2255.97 2135.53 2280.2 2135.53C2301.45 2135.53 2319.15 2139.86 2333.32 2148.5C2347.49 2157.14 2357.12 2168.83 2362.22 2183.56C2364.2 2189.23 2365.62 2196.1 2366.47 2204.17C2367.32 2212.25 2367.75 2220.11 2367.75 2227.76V2371.41H2351.17V2308.51L2359.67 2308.93C2353.58 2330.75 2341.47 2347.68 2323.33 2359.72C2305.2 2371.76 2283.88 2377.78 2259.37 2377.78ZM2258.52 2359.93C2275.1 2359.93 2289.69 2356.96 2302.3 2351.01C2315.05 2345.06 2325.32 2336.49 2333.11 2325.3C2341.04 2313.96 2346.07 2300.43 2348.2 2284.71C2349.33 2276.78 2349.9 2268.28 2349.9 2259.21C2349.9 2250.14 2349.9 2243.63 2349.9 2239.66L2359.25 2246.88C2351.74 2247.59 2341.33 2248.58 2328.01 2249.86C2314.83 2250.99 2300.88 2252.55 2286.15 2254.53C2271.41 2256.38 2258.1 2258.78 2246.2 2261.76C2239.25 2263.46 2232.1 2266.15 2224.73 2269.83C2217.37 2273.52 2211.13 2278.69 2206.03 2285.35C2201.08 2292.01 2198.6 2300.58 2198.6 2311.06C2198.6 2318.43 2200.44 2325.86 2204.12 2333.37C2207.8 2340.88 2213.97 2347.18 2222.61 2352.28C2231.39 2357.38 2243.36 2359.93 2258.52 2359.93ZM2554.32 2371.41C2542.84 2373.96 2531.51 2374.88 2520.32 2374.17C2509.13 2373.61 2499.14 2370.98 2490.36 2366.31C2481.57 2361.49 2474.98 2354.27 2470.59 2344.63C2467.19 2337.13 2465.28 2329.55 2464.86 2321.9C2464.43 2314.11 2464.22 2305.25 2464.22 2295.33V2078.16H2482.07V2295.33C2482.07 2305.25 2482.14 2313.26 2482.28 2319.35C2482.56 2325.44 2484.05 2331.18 2486.74 2336.56C2491.84 2346.76 2499.92 2353.06 2510.97 2355.47C2522.02 2357.74 2536.47 2357.38 2554.32 2354.41V2371.41ZM2410.24 2159.76V2141.91H2554.32V2159.76H2410.24ZM2779.19 2371.41V2241.36L2677.61 2065.41H2698.01L2788.11 2220.96L2877.79 2065.41H2898.19L2797.04 2241.36V2371.41H2779.19ZM2998.69 2377.78C2976.02 2377.78 2956.9 2372.61 2941.31 2362.27C2925.73 2351.93 2913.9 2337.62 2905.83 2319.35C2897.75 2301.07 2893.71 2280.03 2893.71 2256.23C2893.71 2232.15 2897.82 2211.04 2906.04 2192.91C2914.26 2174.78 2926.16 2160.68 2941.74 2150.62C2957.46 2140.56 2976.45 2135.53 2998.69 2135.53C3021.5 2135.53 3040.69 2140.71 3056.28 2151.05C3071.86 2161.25 3083.62 2175.41 3091.55 2193.55C3099.63 2211.68 3103.66 2232.58 3103.66 2256.23C3103.66 2280.46 3099.63 2301.71 3091.55 2319.98C3083.48 2338.12 3071.58 2352.28 3055.85 2362.48C3040.27 2372.68 3021.21 2377.78 2998.69 2377.78ZM2998.69 2359.93C3027.59 2359.93 3049.12 2350.37 3063.29 2331.25C3077.46 2311.98 3084.54 2286.98 3084.54 2256.23C3084.54 2224.93 3077.38 2199.99 3063.08 2181.43C3048.91 2162.73 3027.45 2153.38 2998.69 2153.38C2979.28 2153.38 2963.2 2157.78 2950.45 2166.56C2937.84 2175.34 2928.42 2187.46 2922.19 2202.9C2915.96 2218.34 2912.84 2236.12 2912.84 2256.23C2912.84 2287.4 2920.06 2312.48 2934.51 2331.46C2949.11 2350.44 2970.5 2359.93 2998.69 2359.93ZM3252.08 2376.51C3240.46 2376.51 3229.77 2374.88 3219.99 2371.62C3210.36 2368.36 3201.72 2363.69 3194.07 2357.6C3186.56 2351.36 3180.19 2343.78 3174.94 2334.86C3169.7 2325.93 3165.74 2315.81 3163.04 2304.47C3160.35 2293 3159.01 2280.46 3159.01 2266.86V2141.91H3176.86V2263.46C3176.86 2279.75 3178.49 2293.92 3181.74 2305.96C3185.14 2318 3190.1 2327.99 3196.62 2335.92C3203.14 2343.71 3211 2349.52 3220.21 2353.35C3229.56 2357.17 3240.18 2359.08 3252.08 2359.08C3266.11 2359.08 3278.01 2356.68 3287.78 2351.86C3297.7 2346.9 3305.7 2340.17 3311.79 2331.67C3317.89 2323.17 3322.35 2313.4 3325.18 2302.35C3328.01 2291.3 3329.43 2279.61 3329.43 2267.28L3346.01 2266.86C3346.01 2293.07 3341.69 2314.25 3333.04 2330.4C3324.4 2346.41 3312.93 2358.09 3298.62 2365.46C3284.45 2372.83 3268.94 2376.51 3252.08 2376.51ZM3330.71 2371.41V2324.66H3329.43V2141.91H3347.28V2371.41H3330.71ZM3637.74 2377.78C3607.28 2377.78 3581.85 2370.98 3561.45 2357.38C3541.2 2343.78 3525.97 2325.01 3515.77 2301.07C3505.57 2277.13 3500.47 2249.58 3500.47 2218.41C3500.47 2187.24 3505.57 2159.69 3515.77 2135.75C3525.97 2111.81 3541.2 2093.03 3561.45 2079.43C3581.85 2065.83 3607.28 2059.03 3637.74 2059.03C3668.2 2059.03 3693.56 2065.83 3713.82 2079.43C3734.22 2093.03 3749.52 2111.81 3759.72 2135.75C3769.92 2159.69 3775.02 2187.24 3775.02 2218.41C3775.02 2249.58 3769.92 2277.13 3759.72 2301.07C3749.52 2325.01 3734.22 2343.78 3713.82 2357.38C3693.56 2370.98 3668.2 2377.78 3637.74 2377.78ZM3637.74 2359.93C3663.95 2359.93 3685.77 2353.91 3703.19 2341.87C3720.76 2329.69 3733.93 2312.97 3742.72 2291.72C3751.5 2270.47 3755.89 2246.03 3755.89 2218.41C3755.89 2190.78 3751.5 2166.35 3742.72 2145.1C3733.93 2123.71 3720.76 2106.99 3703.19 2094.95C3685.77 2082.91 3663.95 2076.88 3637.74 2076.88C3611.53 2076.88 3589.72 2082.91 3572.29 2094.95C3555.01 2106.99 3541.98 2123.71 3533.19 2145.1C3524.41 2166.35 3519.88 2190.78 3519.59 2218.41C3519.31 2246.03 3523.56 2270.47 3532.34 2291.72C3541.13 2312.97 3554.3 2329.69 3571.87 2341.87C3589.58 2353.91 3611.53 2359.93 3637.74 2359.93ZM3879.17 2371.41L3809.04 2141.91H3827.74L3888.52 2340.81L3949.29 2141.91H3967.99L4028.77 2340.81L4089.97 2141.91H4108.24L4038.12 2371.41H4019.42L3958.64 2172.08L3897.87 2371.41H3879.17ZM4243.22 2377.78C4221.55 2377.78 4202.85 2372.9 4187.12 2363.12C4171.54 2353.35 4159.5 2339.39 4151 2321.26C4142.5 2303.13 4138.25 2281.59 4138.25 2256.66C4138.25 2231.58 4142.43 2209.98 4150.79 2191.85C4159.29 2173.71 4171.33 2159.83 4186.91 2150.2C4202.64 2140.42 4221.41 2135.53 4243.22 2135.53C4265.18 2135.53 4283.95 2140.49 4299.54 2150.41C4315.12 2160.33 4327.02 2174.71 4335.24 2193.55C4343.6 2212.39 4347.77 2235.13 4347.77 2261.76H4328.65V2255.81C4327.8 2222.8 4320.01 2197.51 4305.27 2179.95C4290.68 2162.24 4270 2153.38 4243.22 2153.38C4216.02 2153.38 4194.92 2162.45 4179.9 2180.58C4164.88 2198.58 4157.37 2223.93 4157.37 2256.66C4157.37 2289.38 4164.88 2314.81 4179.9 2332.95C4194.92 2350.94 4216.02 2359.93 4243.22 2359.93C4262.21 2359.93 4278.85 2355.47 4293.16 2346.55C4307.47 2337.62 4318.87 2324.8 4327.37 2308.08L4342.25 2316.58C4332.9 2336.13 4319.65 2351.22 4302.51 2361.85C4285.37 2372.47 4265.61 2377.78 4243.22 2377.78ZM4149.72 2261.76V2243.91H4336.72V2261.76H4149.72Z" fill="white"/>
<defs>
<clipPath id="clip0_0_1">
<rect width="4345" height="1617.82" fill="white" transform="translate(0 0.590332)"/>
</clipPath>
</defs>
</svg>
